<?xml version="1.0" standalone="no"?>
<!DOCTYPE svg PUBLIC "-//W3C//DTD SVG 20010904//EN"
 "http://www.w3.org/TR/2001/REC-SVG-20010904/DTD/svg10.dtd">
<svg version="1.0" xmlns="http://www.w3.org/2000/svg"
 width="531.000000pt" height="531.000000pt" viewBox="0 0 531.000000 531.000000"
 preserveAspectRatio="xMidYMid meet">
<metadata>
Created by potrace 1.14, written by Peter Selinger 2001-2017
</metadata>
<g transform="translate(0.000000,531.000000) scale(0.100000,-0.100000)"
fill="#000000" stroke="none">
<path d="M2620 4644 c-94 -12 -155 -26 -245 -53 -79 -25 -267 -100 -279 -112
-6 -5 -18 -9 -28 -9 -10 0 -47 -29 -81 -64 -53 -53 -74 -67 -123 -81 -75 -21
-144 -59 -168 -91 -10 -14 -21 -44 -24 -67 -4 -32 -14 -51 -43 -77 -20 -20
-41 -48 -44 -63 -12 -45 4 -98 37 -129 l31 -29 -24 -17 c-13 -9 -45 -37 -71
-62 -26 -25 -64 -57 -85 -73 -331 -240 -506 -451 -697 -842 -79 -160 -133
-293 -170 -412 -14 -46 -16 -181 -16 -1257 l0 -1206 2065 0 2065 0 0 809 0
810 -59 88 c-32 48 -69 108 -82 133 -13 25 -27 47 -30 50 -12 10 -69 99 -69
107 0 14 -56 114 -104 187 -34 53 -46 81 -51 125 -9 70 -36 171 -74 276 -24
68 -65 204 -76 255 -19 89 -34 175 -39 221 -3 30 -8 62 -10 70 -3 8 -7 34 -10
59 -3 25 -8 61 -11 80 -3 19 -7 56 -10 82 -3 26 -10 59 -16 75 -6 15 -10 29
-9 30 1 2 10 38 19 80 23 107 14 166 -32 208 -19 17 -48 37 -65 44 -17 7 -34
22 -37 32 -4 10 -11 19 -16 19 -5 0 -9 7 -9 15 0 8 -3 15 -8 15 -4 0 -13 9
-20 20 -11 18 -9 24 18 47 87 73 77 170 -26 233 -17 11 -39 38 -49 60 -23 52
-71 81 -196 118 -59 18 -114 43 -147 65 -28 20 -54 37 -57 37 -3 0 -29 12 -58
26 -139 69 -262 114 -388 143 -169 38 -242 43 -379 25z"/>
</g>
</svg>
